<svg width="21" height="18" viewBox="0 0 21 18" fill="none" xmlns="http://www.w3.org/2000/svg">
<path d="M1.64321 17.8315C1.25197 17.9907 0.880293 17.9557 0.528176 17.7264C0.176059 17.4979 0 17.1647 0 16.7269V12.2786C0 12 0.0782484 11.7512 0.234745 11.5322C0.391242 11.3133 0.606424 11.174 0.880293 11.1143L9.3898 8.96478L0.880293 6.81528C0.606424 6.75557 0.391242 6.61625 0.234745 6.39732C0.0782484 6.17839 0 5.92961 0 5.65097V1.20269C0 0.764828 0.176059 0.431257 0.528176 0.201977C0.880293 -0.0265076 1.25197 -0.061139 1.64321 0.0980835L19.7186 7.86018C20.2076 8.07911 20.4521 8.44731 20.4521 8.96478C20.4521 9.48226 20.2076 9.85046 19.7186 10.0694L1.64321 17.8315Z" fill="white"/>
</svg>
