<svg width="14" height="14" viewBox="0 0 14 14" fill="none" xmlns="http://www.w3.org/2000/svg">
<path d="M13.6757 8.39999L12.7445 7.16249C12.7507 7.04999 12.7445 6.93124 12.7445 6.84374L13.6757 5.59999C13.722 5.53946 13.7535 5.46892 13.7676 5.39403C13.7817 5.31913 13.7781 5.24197 13.757 5.16874C13.5995 4.59253 13.3706 4.03824 13.0757 3.51874C13.0377 3.45275 12.9854 3.39607 12.9227 3.35283C12.86 3.30958 12.7884 3.28086 12.7132 3.26874L11.182 3.04999L10.9507 2.81874L10.732 1.28749C10.7198 1.21311 10.6917 1.14224 10.6496 1.07969C10.6075 1.01714 10.5525 0.964375 10.4882 0.924993C9.96602 0.631191 9.4098 0.402406 8.83199 0.243743C8.75876 0.222634 8.6816 0.218989 8.60671 0.233099C8.53181 0.24721 8.46127 0.278683 8.40074 0.324993L7.16324 1.24999H6.83824L5.60074 0.324993C5.54021 0.278683 5.46967 0.24721 5.39477 0.233099C5.31988 0.218989 5.24272 0.222634 5.16949 0.243743C4.59328 0.401255 4.03899 0.630109 3.51949 0.924993C3.4535 0.963039 3.39682 1.01532 3.35357 1.07802C3.31033 1.14073 3.2816 1.21229 3.26949 1.28749L3.05074 2.81874L2.81949 3.04999L1.28824 3.26874C1.21304 3.28086 1.14148 3.30958 1.07877 3.35283C1.01606 3.39607 0.963786 3.45275 0.92574 3.51874C0.630857 4.03824 0.402003 4.59253 0.24449 5.16874C0.223382 5.24197 0.219736 5.31913 0.233847 5.39403C0.247957 5.46892 0.279431 5.53946 0.32574 5.59999L1.25699 6.83749V7.15624L0.32574 8.39999C0.279431 8.46052 0.247957 8.53106 0.233847 8.60596C0.219736 8.68085 0.223382 8.75801 0.24449 8.83124C0.402003 9.40746 0.630857 9.96175 0.92574 10.4812C0.963786 10.5472 1.01606 10.6039 1.07877 10.6472C1.14148 10.6904 1.21304 10.7191 1.28824 10.7312L2.81949 10.95L3.05074 11.1812L3.26949 12.7125C3.2816 12.7877 3.31033 12.8593 3.35357 12.922C3.39682 12.9847 3.4535 13.0369 3.51949 13.075C4.03899 13.3699 4.59328 13.5987 5.16949 13.7562C5.21215 13.7686 5.25633 13.7749 5.30074 13.775C5.40915 13.7764 5.51486 13.7412 5.60074 13.675L6.83824 12.75H7.16324L8.40074 13.675C8.46127 13.7213 8.53181 13.7528 8.60671 13.7669C8.6816 13.781 8.75876 13.7774 8.83199 13.7562C9.40859 13.5999 9.96302 13.3709 10.482 13.075C10.548 13.0369 10.6047 12.9847 10.6479 12.922C10.6912 12.8593 10.7199 12.7877 10.732 12.7125L10.9507 11.175C11.0257 11.1 11.1132 11.0187 11.1757 10.95L12.7132 10.7312C12.7884 10.7191 12.86 10.6904 12.9227 10.6472C12.9854 10.6039 13.0377 10.5472 13.0757 10.4812C13.3706 9.96175 13.5995 9.40746 13.757 8.83124C13.7781 8.75801 13.7817 8.68085 13.7676 8.60596C13.7535 8.53106 13.722 8.46052 13.6757 8.39999ZM7.00074 9.74999C6.45684 9.74999 5.92516 9.58871 5.47292 9.28653C5.02069 8.98436 4.66821 8.55487 4.46007 8.05237C4.25193 7.54988 4.19747 6.99694 4.30358 6.46349C4.40969 5.93005 4.6716 5.44004 5.0562 5.05545C5.44079 4.67085 5.93079 4.40894 6.46424 4.30283C6.99769 4.19672 7.55062 4.25118 8.05312 4.45932C8.55562 4.66746 8.98511 5.01994 9.28728 5.47217C9.58945 5.92441 9.75074 6.45609 9.75074 6.99999C9.75074 7.72934 9.46101 8.42881 8.94528 8.94454C8.42956 9.46026 7.73009 9.74999 7.00074 9.74999Z" fill="white"/>
</svg>
