<svg width="26" height="24" viewBox="0 0 26 24" fill="none" xmlns="http://www.w3.org/2000/svg">
<path d="M10.5117 23.25L15.5117 18.25H23.0117C23.6992 18.25 24.288 18.4946 24.778 18.9837C25.2671 19.4737 25.5117 20.0625 25.5117 20.75C25.5117 21.4375 25.2671 22.0263 24.778 22.5163C24.288 23.0054 23.6992 23.25 23.0117 23.25H10.5117ZM3.01172 20.75H4.76172L15.543 9.96875L13.793 8.21875L3.01172 19V20.75ZM20.8867 8.15625L15.5742 2.90625L17.3242 1.15625C17.8034 0.677083 18.3921 0.4375 19.0905 0.4375C19.788 0.4375 20.3763 0.677083 20.8555 1.15625L22.6055 2.90625C23.0846 3.38542 23.3346 3.96375 23.3555 4.64125C23.3763 5.31792 23.1471 5.89583 22.668 6.375L20.8867 8.15625ZM1.76172 23.25C1.40755 23.25 1.11089 23.13 0.871719 22.89C0.631719 22.6508 0.511719 22.3542 0.511719 22V18.4688C0.511719 18.3021 0.542969 18.1408 0.605469 17.985C0.667969 17.8283 0.761719 17.6875 0.886719 17.5625L13.7617 4.6875L19.0742 10L6.19922 22.875C6.07422 23 5.9338 23.0937 5.77797 23.1562C5.6213 23.2188 5.45964 23.25 5.29297 23.25H1.76172Z" fill="white"/>
</svg>
