<svg width="25" height="28" viewBox="0 0 25 28" fill="none" xmlns="http://www.w3.org/2000/svg">
<path d="M2.34375 27.5391C1.69271 27.5391 1.13932 27.3112 0.683594 26.8555C0.227865 26.3997 0 25.8464 0 25.1953V9.96094C0 9.59635 0.0846353 9.24479 0.253906 8.90625C0.423177 8.56771 0.651042 8.29427 0.9375 8.08594L11.0938 0.46875C11.3021 0.3125 11.5234 0.195313 11.7578 0.117188C11.9922 0.0390626 12.2396 0 12.5 0C12.7604 0 13.0078 0.0390626 13.2422 0.117188C13.4766 0.195313 13.6979 0.3125 13.9062 0.46875L24.0625 8.08594C24.349 8.29427 24.5768 8.56771 24.7461 8.90625C24.9154 9.24479 25 9.59635 25 9.96094V25.1953C25 25.8464 24.7721 26.3997 24.3164 26.8555C23.8607 27.3112 23.3073 27.5391 22.6562 27.5391H15.625V16.6016H9.375V27.5391H2.34375Z" fill="white"/>
</svg>
