<svg width="33" height="18" viewBox="0 0 33 18" fill="none" xmlns="http://www.w3.org/2000/svg">
<path d="M9.17729 13.5C10.4519 13.5 11.5353 13.0625 12.4276 12.1875C13.3198 11.3125 13.7659 10.25 13.7659 9C13.7659 7.75 13.3198 6.6875 12.4276 5.8125C11.5353 4.9375 10.4519 4.5 9.17729 4.5C7.90267 4.5 6.81923 4.9375 5.927 5.8125C5.03476 6.6875 4.58864 7.75 4.58864 9C4.58864 10.25 5.03476 11.3125 5.927 12.1875C6.81923 13.0625 7.90267 13.5 9.17729 13.5ZM9.17729 18C6.62804 18 4.46118 17.125 2.67671 15.375C0.892236 13.625 0 11.5 0 9C0 6.5 0.892236 4.375 2.67671 2.625C4.46118 0.875 6.62804 0 9.17729 0C11.2422 0 13.046 0.575 14.5888 1.725C16.1306 2.875 17.2074 4.3 17.8192 6H29.9791C30.1831 6 30.3809 6.0375 30.5726 6.1125C30.7633 6.1875 30.9224 6.2875 31.0498 6.4125L32.5411 7.875C32.6941 8.025 32.8088 8.1935 32.8853 8.3805C32.9618 8.5685 33 8.7625 33 8.9625C33 9.1625 32.9684 9.35 32.9052 9.525C32.8409 9.7 32.7323 9.8625 32.5794 10.0125L28.6026 13.9125C28.4496 14.0625 28.2839 14.175 28.1054 14.25C27.927 14.325 27.7358 14.3625 27.5319 14.3625C27.3279 14.3625 27.1367 14.331 26.9583 14.268C26.7798 14.206 26.6141 14.1 26.4612 13.95L24.4728 12L22.4844 13.95C22.3314 14.1 22.1657 14.206 21.9873 14.268C21.8088 14.331 21.6176 14.3625 21.4137 14.3625C21.2097 14.3625 21.0185 14.331 20.8401 14.268C20.6616 14.206 20.4959 14.1 20.343 13.95L18.3546 12H17.8192C17.1819 13.8 16.073 15.25 14.4925 16.35C12.9119 17.45 11.1402 18 9.17729 18Z" fill="white"/>
</svg>
