<svg width="25" height="20" viewBox="0 0 25 20" fill="none" xmlns="http://www.w3.org/2000/svg">
<path d="M2.5 20C1.8125 20 1.22417 19.7554 0.735 19.2663C0.245 18.7763 0 18.1875 0 17.5V2.5C0 1.8125 0.245 1.22417 0.735 0.735C1.22417 0.245 1.8125 0 2.5 0H22.5C23.1875 0 23.7763 0.245 24.2663 0.735C24.7554 1.22417 25 1.8125 25 2.5V17.5C25 18.1875 24.7554 18.7763 24.2663 19.2663C23.7763 19.7554 23.1875 20 22.5 20H2.5ZM12.5 11.0312C12.6042 11.0312 12.7133 11.0154 12.8275 10.9837C12.9425 10.9529 13.0521 10.9062 13.1562 10.8438L22 5.3125C22.1667 5.20833 22.2917 5.07833 22.375 4.9225C22.4583 4.76583 22.5 4.59375 22.5 4.40625C22.5 3.98958 22.3229 3.67708 21.9688 3.46875C21.6146 3.26042 21.25 3.27083 20.875 3.5L12.5 8.75L4.125 3.5C3.75 3.27083 3.38542 3.26542 3.03125 3.48375C2.67708 3.70292 2.5 4.01042 2.5 4.40625C2.5 4.61458 2.54167 4.79667 2.625 4.9525C2.70833 5.10917 2.83333 5.22917 3 5.3125L11.8438 10.8438C11.9479 10.9062 12.0575 10.9529 12.1725 10.9837C12.2867 11.0154 12.3958 11.0312 12.5 11.0312Z" fill="white"/>
</svg>
