<svg width="25" height="32" viewBox="0 0 25 32" fill="none" xmlns="http://www.w3.org/2000/svg">
<path d="M12.5 18.75C13.3594 18.75 14.0953 18.4438 14.7078 17.8312C15.3193 17.2198 15.625 16.4844 15.625 15.625C15.625 14.7656 15.3193 14.0297 14.7078 13.4172C14.0953 12.8057 13.3594 12.5 12.5 12.5C11.6406 12.5 10.9052 12.8057 10.2938 13.4172C9.68125 14.0297 9.375 14.7656 9.375 15.625C9.375 16.4844 9.68125 17.2198 10.2938 17.8312C10.9052 18.4438 11.6406 18.75 12.5 18.75ZM6.25 25H18.75V24.1016C18.75 23.4766 18.5807 22.9036 18.2422 22.3828C17.9036 21.862 17.4349 21.4714 16.8359 21.2109C16.1589 20.9245 15.4625 20.7031 14.7469 20.5469C14.0302 20.3906 13.2812 20.3125 12.5 20.3125C11.7188 20.3125 10.9698 20.3906 10.2531 20.5469C9.5375 20.7031 8.84115 20.9245 8.16406 21.2109C7.5651 21.4714 7.09635 21.862 6.75781 22.3828C6.41927 22.9036 6.25 23.4766 6.25 24.1016V25ZM21.875 31.25H3.125C2.26562 31.25 1.53021 30.9443 0.91875 30.3328C0.30625 29.7203 0 28.9844 0 28.125V3.125C0 2.26562 0.30625 1.52969 0.91875 0.917187C1.53021 0.305729 2.26562 0 3.125 0H14.3359C14.7526 0 15.15 0.0781251 15.5281 0.234375C15.9052 0.390625 16.237 0.611979 16.5234 0.898438L24.1016 8.47656C24.388 8.76302 24.6094 9.09479 24.7656 9.47188C24.9219 9.85 25 10.2474 25 10.6641V28.125C25 28.9844 24.6943 29.7203 24.0828 30.3328C23.4703 30.9443 22.7344 31.25 21.875 31.25Z" fill="white"/>
</svg>
